# xmcd CD database file
#
# Track frame offsets:
#	150
#	17374
#	34070
#	53442
#	71454
#	93331
#	111698
#	130209
#	143061
#	156763
#	173083
#	196559
#	217863
#	235539
#	253729
#	270345
#	291614
#	305047
#	313569
#	332752
#
# Disc length: 4691 seconds
#
# Revision: 0
# Processed by: cddbd v1.5.1PL0 Copyright (c) Steve Scherf et al.
# Submitted via: CDex 1.51
#
DISCID=13125114
DTITLE=Oscar Pettiford - Complete Studio Big Band Recordings
DYEAR=1957
DGENRE=Jazz
TTITLE0=Nica's Tempo
TTITLE1=Deep Passion
TTITLE2=Smoke Signal
TTITLE3=Sunrise-Sunset
TTITLE4=Not So Sleepy
TTITLE5=Perdido
TTITLE6=Speculation
TTITLE7=Two French Fries
TTITLE8=The Pendulum At Falcon's Lair
TTITLE9=The Gentle Art Of Love
TTITLE10=Now See How You Are
TTITLE11=I Remember Clifford
TTITLE12=Aw! Come On
TTITLE13=Somewhere
TTITLE14=Laura
TTITLE15=Little Niles
TTITLE16=Seabreeze
TTITLE17=The Gentle Art Of Love
TTITLE18=Aw! Come On
TTITLE19=I Remember Clifford
EXTD=YEAR: 1957
EXTT0=
EXTT1=
EXTT2=
EXTT3=
EXTT4=
EXTT5=
EXTT6=
EXTT7=
EXTT8=
EXTT9=
EXTT10=
EXTT11=
EXTT12=
EXTT13=
EXTT14=
EXTT15=
EXTT16=
EXTT17=
EXTT18=
EXTT19=
PLAYORDER=
